<?xml version="1.0" encoding="UTF-8" standalone="no"?>
<!DOCTYPE svg PUBLIC "-//W3C//DTD SVG 1.1//EN" "http://www.w3.org/Graphics/SVG/1.1/DTD/svg11.dtd">
<svg width="100%" height="100%" viewBox="0 0 2000 2000" version="1.1" xmlns="http://www.w3.org/2000/svg" xmlns:xlink="http://www.w3.org/1999/xlink" xml:space="preserve" xmlns:serif="http://www.serif.com/" style="fill-rule:evenodd;clip-rule:evenodd;stroke-linejoin:round;stroke-miterlimit:2;">
    <g transform="matrix(2.12937,0,0,2.12937,0,0)">
        <rect x="0" y="0" width="939.245" height="939.245" style="fill:rgb(0,6,73);"/>
    </g>
    <g transform="matrix(2.14161,0,0,2.14161,-18925.9,-370.188)">
        <g transform="matrix(1.01132,0,0,1.01132,8589.98,-1765.48)">
            <path d="M658.453,2306.06C664.292,2314.68 669.31,2323.94 673.508,2333.86C681.471,2352.67 685.452,2372.37 685.452,2392.96C685.452,2413.28 681.54,2432.84 673.714,2451.65C665.889,2470.46 655.043,2487 641.177,2501.28C627.311,2515.56 611.111,2526.95 592.577,2535.47C574.043,2543.98 554.068,2548.23 532.651,2548.23L413.211,2548.23L413.211,2237.69L917.331,2237.69L917.331,2306.06L851.021,2306.06L851.021,2548.23L770.296,2548.23L770.296,2306.06L658.453,2306.06ZM998.056,2237.69L998.056,2548.23L917.331,2548.23L917.331,2237.69L998.056,2237.69ZM493.936,2479.86L512.47,2479.86C526.473,2479.86 538.966,2477.67 549.949,2473.28C560.932,2468.88 570.199,2462.84 577.75,2455.15C585.301,2447.46 591.067,2438.34 595.048,2427.76C599.03,2417.19 601.02,2405.59 601.02,2392.96C601.02,2380.61 598.961,2369.07 594.842,2358.37C590.724,2347.66 584.889,2338.46 577.338,2330.77C569.787,2323.08 560.52,2317.04 549.537,2312.65C538.554,2308.26 526.198,2306.06 512.47,2306.06L493.936,2306.06L493.936,2479.86Z" style="fill:white;fill-rule:nonzero;"/>
        </g>
        <g transform="matrix(1,0,0,1,153.187,-670.796)">
            <circle cx="9400.01" cy="1108.48" r="47.245" style="fill:rgb(255,0,0);"/>
            <clipPath id="_clip1">
                <circle cx="9400.01" cy="1108.48" r="47.245"/>
            </clipPath>
            <g clip-path="url(#_clip1)">
                <g transform="matrix(1,0,0,1,-18.2473,16.5442)">
                    <rect x="9363.43" y="1091.38" width="109.665" height="60.399" style="fill:rgb(243,243,243);"/>
                </g>
            </g>
        </g>
        <g transform="matrix(1.36297,0,0,1.36297,-3082.5,-1326.47)">
            <g transform="matrix(48.9519,0,0,48.9519,8869.66,1625.14)">
                <path d="M0.313,-0.698C0.386,-0.698 0.451,-0.684 0.507,-0.655C0.562,-0.626 0.605,-0.586 0.636,-0.533C0.666,-0.48 0.681,-0.418 0.681,-0.348C0.681,-0.278 0.666,-0.217 0.636,-0.165C0.605,-0.112 0.562,-0.072 0.507,-0.043C0.451,-0.014 0.386,-0 0.313,-0L0.069,-0L0.069,-0.698L0.313,-0.698ZM0.308,-0.119C0.381,-0.119 0.438,-0.139 0.478,-0.179C0.518,-0.219 0.538,-0.275 0.538,-0.348C0.538,-0.421 0.518,-0.478 0.478,-0.519C0.438,-0.56 0.381,-0.58 0.308,-0.58L0.209,-0.58L0.209,-0.119L0.308,-0.119Z" style="fill:white;fill-rule:nonzero;"/>
            </g>
            <g transform="matrix(48.9519,0,0,48.9519,8904.76,1625.14)">
                <path d="M0.315,0.009C0.262,0.009 0.214,-0.003 0.171,-0.027C0.128,-0.05 0.095,-0.084 0.071,-0.127C0.046,-0.17 0.034,-0.22 0.034,-0.277C0.034,-0.334 0.047,-0.384 0.072,-0.427C0.096,-0.47 0.131,-0.504 0.174,-0.528C0.217,-0.551 0.266,-0.563 0.319,-0.563C0.372,-0.563 0.421,-0.551 0.464,-0.528C0.507,-0.504 0.542,-0.47 0.567,-0.427C0.592,-0.384 0.604,-0.334 0.604,-0.277C0.604,-0.22 0.591,-0.17 0.566,-0.127C0.54,-0.084 0.505,-0.05 0.462,-0.027C0.418,-0.003 0.369,0.009 0.315,0.009ZM0.315,-0.113C0.34,-0.113 0.364,-0.119 0.387,-0.132C0.409,-0.144 0.427,-0.162 0.44,-0.187C0.453,-0.212 0.46,-0.242 0.46,-0.277C0.46,-0.33 0.446,-0.37 0.419,-0.399C0.391,-0.427 0.357,-0.441 0.317,-0.441C0.277,-0.441 0.244,-0.427 0.217,-0.399C0.19,-0.37 0.176,-0.33 0.176,-0.277C0.176,-0.224 0.189,-0.184 0.216,-0.156C0.242,-0.127 0.275,-0.113 0.315,-0.113Z" style="fill:white;fill-rule:nonzero;"/>
            </g>
            <g transform="matrix(48.9519,0,0,48.9519,8935.99,1625.14)">
                <path d="M0.315,0.009C0.262,0.009 0.214,-0.003 0.171,-0.027C0.128,-0.05 0.095,-0.084 0.071,-0.127C0.046,-0.17 0.034,-0.22 0.034,-0.277C0.034,-0.334 0.047,-0.384 0.072,-0.427C0.096,-0.47 0.131,-0.504 0.174,-0.528C0.217,-0.551 0.266,-0.563 0.319,-0.563C0.372,-0.563 0.421,-0.551 0.464,-0.528C0.507,-0.504 0.542,-0.47 0.567,-0.427C0.592,-0.384 0.604,-0.334 0.604,-0.277C0.604,-0.22 0.591,-0.17 0.566,-0.127C0.54,-0.084 0.505,-0.05 0.462,-0.027C0.418,-0.003 0.369,0.009 0.315,0.009ZM0.315,-0.113C0.34,-0.113 0.364,-0.119 0.387,-0.132C0.409,-0.144 0.427,-0.162 0.44,-0.187C0.453,-0.212 0.46,-0.242 0.46,-0.277C0.46,-0.33 0.446,-0.37 0.419,-0.399C0.391,-0.427 0.357,-0.441 0.317,-0.441C0.277,-0.441 0.244,-0.427 0.217,-0.399C0.19,-0.37 0.176,-0.33 0.176,-0.277C0.176,-0.224 0.189,-0.184 0.216,-0.156C0.242,-0.127 0.275,-0.113 0.315,-0.113Z" style="fill:white;fill-rule:nonzero;"/>
            </g>
            <g transform="matrix(48.9519,0,0,48.9519,8967.22,1625.14)">
                <path d="M0.209,-0.468C0.227,-0.497 0.251,-0.52 0.28,-0.537C0.309,-0.554 0.342,-0.562 0.379,-0.562L0.379,-0.415L0.342,-0.415C0.298,-0.415 0.265,-0.405 0.243,-0.384C0.22,-0.363 0.209,-0.327 0.209,-0.276L0.209,-0L0.069,-0L0.069,-0.554L0.209,-0.554L0.209,-0.468Z" style="fill:white;fill-rule:nonzero;"/>
            </g>
            <g transform="matrix(48.9519,0,0,48.9519,8998.65,1625.14)">
                <path d="M0.232,-0.439L0.232,-0.171C0.232,-0.152 0.237,-0.139 0.246,-0.131C0.255,-0.122 0.27,-0.118 0.291,-0.118L0.356,-0.118L0.356,-0L0.268,-0C0.15,-0 0.091,-0.057 0.091,-0.172L0.091,-0.439L0.025,-0.439L0.025,-0.554L0.091,-0.554L0.091,-0.691L0.232,-0.691L0.232,-0.554L0.356,-0.554L0.356,-0.439L0.232,-0.439Z" style="fill:white;fill-rule:nonzero;"/>
            </g>
            <g transform="matrix(48.9519,0,0,48.9519,9017.64,1625.14)">
                <path d="M0.315,0.009C0.262,0.009 0.214,-0.003 0.171,-0.027C0.128,-0.05 0.095,-0.084 0.071,-0.127C0.046,-0.17 0.034,-0.22 0.034,-0.277C0.034,-0.334 0.047,-0.384 0.072,-0.427C0.096,-0.47 0.131,-0.504 0.174,-0.528C0.217,-0.551 0.266,-0.563 0.319,-0.563C0.372,-0.563 0.421,-0.551 0.464,-0.528C0.507,-0.504 0.542,-0.47 0.567,-0.427C0.592,-0.384 0.604,-0.334 0.604,-0.277C0.604,-0.22 0.591,-0.17 0.566,-0.127C0.54,-0.084 0.505,-0.05 0.462,-0.027C0.418,-0.003 0.369,0.009 0.315,0.009ZM0.315,-0.113C0.34,-0.113 0.364,-0.119 0.387,-0.132C0.409,-0.144 0.427,-0.162 0.44,-0.187C0.453,-0.212 0.46,-0.242 0.46,-0.277C0.46,-0.33 0.446,-0.37 0.419,-0.399C0.391,-0.427 0.357,-0.441 0.317,-0.441C0.277,-0.441 0.244,-0.427 0.217,-0.399C0.19,-0.37 0.176,-0.33 0.176,-0.277C0.176,-0.224 0.189,-0.184 0.216,-0.156C0.242,-0.127 0.275,-0.113 0.315,-0.113Z" style="fill:white;fill-rule:nonzero;"/>
            </g>
            <g transform="matrix(48.9519,0,0,48.9519,9060.53,1625.14)">
                <rect x="0.069" y="-0.698" width="0.14" height="0.698" style="fill:white;"/>
            </g>
            <g transform="matrix(48.9519,0,0,48.9519,9074.13,1625.14)">
                <path d="M0.376,-0.562C0.442,-0.562 0.495,-0.541 0.536,-0.5C0.577,-0.458 0.597,-0.4 0.597,-0.325L0.597,-0L0.457,-0L0.457,-0.306C0.457,-0.35 0.446,-0.384 0.424,-0.408C0.402,-0.431 0.372,-0.443 0.334,-0.443C0.295,-0.443 0.265,-0.431 0.243,-0.408C0.22,-0.384 0.209,-0.35 0.209,-0.306L0.209,-0L0.069,-0L0.069,-0.554L0.209,-0.554L0.209,-0.485C0.228,-0.509 0.252,-0.528 0.281,-0.542C0.31,-0.555 0.341,-0.562 0.376,-0.562Z" style="fill:white;fill-rule:nonzero;"/>
            </g>
            <g transform="matrix(48.9519,0,0,48.9519,9106.49,1625.14)">
                <path d="M0.033,-0.279C0.033,-0.335 0.044,-0.385 0.067,-0.428C0.089,-0.471 0.119,-0.505 0.158,-0.528C0.197,-0.551 0.24,-0.563 0.287,-0.563C0.323,-0.563 0.357,-0.555 0.39,-0.54C0.423,-0.524 0.449,-0.503 0.468,-0.477L0.468,-0.74L0.61,-0.74L0.61,-0L0.468,-0L0.468,-0.082C0.451,-0.055 0.426,-0.033 0.395,-0.016C0.364,0.001 0.327,0.009 0.286,0.009C0.239,0.009 0.197,-0.003 0.158,-0.027C0.119,-0.051 0.089,-0.085 0.067,-0.129C0.044,-0.172 0.033,-0.222 0.033,-0.279ZM0.469,-0.277C0.469,-0.311 0.462,-0.34 0.449,-0.365C0.436,-0.389 0.418,-0.408 0.395,-0.421C0.372,-0.434 0.348,-0.44 0.322,-0.44C0.296,-0.44 0.272,-0.434 0.25,-0.421C0.228,-0.408 0.21,-0.39 0.197,-0.366C0.183,-0.341 0.176,-0.312 0.176,-0.279C0.176,-0.246 0.183,-0.217 0.197,-0.192C0.21,-0.167 0.228,-0.147 0.251,-0.134C0.273,-0.121 0.297,-0.114 0.322,-0.114C0.348,-0.114 0.372,-0.121 0.395,-0.134C0.418,-0.147 0.436,-0.165 0.449,-0.19C0.462,-0.214 0.469,-0.243 0.469,-0.277Z" style="fill:white;fill-rule:nonzero;"/>
            </g>
            <g transform="matrix(48.9519,0,0,48.9519,9139.68,1625.14)">
                <path d="M0.315,0.009C0.262,0.009 0.214,-0.003 0.171,-0.027C0.128,-0.05 0.095,-0.084 0.071,-0.127C0.046,-0.17 0.034,-0.22 0.034,-0.277C0.034,-0.334 0.047,-0.384 0.072,-0.427C0.096,-0.47 0.131,-0.504 0.174,-0.528C0.217,-0.551 0.266,-0.563 0.319,-0.563C0.372,-0.563 0.421,-0.551 0.464,-0.528C0.507,-0.504 0.542,-0.47 0.567,-0.427C0.592,-0.384 0.604,-0.334 0.604,-0.277C0.604,-0.22 0.591,-0.17 0.566,-0.127C0.54,-0.084 0.505,-0.05 0.462,-0.027C0.418,-0.003 0.369,0.009 0.315,0.009ZM0.315,-0.113C0.34,-0.113 0.364,-0.119 0.387,-0.132C0.409,-0.144 0.427,-0.162 0.44,-0.187C0.453,-0.212 0.46,-0.242 0.46,-0.277C0.46,-0.33 0.446,-0.37 0.419,-0.399C0.391,-0.427 0.357,-0.441 0.317,-0.441C0.277,-0.441 0.244,-0.427 0.217,-0.399C0.19,-0.37 0.176,-0.33 0.176,-0.277C0.176,-0.224 0.189,-0.184 0.216,-0.156C0.242,-0.127 0.275,-0.113 0.315,-0.113Z" style="fill:white;fill-rule:nonzero;"/>
            </g>
            <g transform="matrix(48.9519,0,0,48.9519,9170.91,1625.14)">
                <path d="M0.376,-0.562C0.442,-0.562 0.495,-0.541 0.536,-0.5C0.577,-0.458 0.597,-0.4 0.597,-0.325L0.597,-0L0.457,-0L0.457,-0.306C0.457,-0.35 0.446,-0.384 0.424,-0.408C0.402,-0.431 0.372,-0.443 0.334,-0.443C0.295,-0.443 0.265,-0.431 0.243,-0.408C0.22,-0.384 0.209,-0.35 0.209,-0.306L0.209,-0L0.069,-0L0.069,-0.554L0.209,-0.554L0.209,-0.485C0.228,-0.509 0.252,-0.528 0.281,-0.542C0.31,-0.555 0.341,-0.562 0.376,-0.562Z" style="fill:white;fill-rule:nonzero;"/>
            </g>
            <g transform="matrix(48.9519,0,0,48.9519,9203.27,1625.14)">
                <path d="M0.584,-0.289C0.584,-0.269 0.583,-0.251 0.58,-0.235L0.175,-0.235C0.178,-0.195 0.192,-0.164 0.217,-0.141C0.242,-0.118 0.272,-0.107 0.308,-0.107C0.36,-0.107 0.397,-0.129 0.419,-0.174L0.57,-0.174C0.554,-0.121 0.523,-0.077 0.478,-0.043C0.433,-0.008 0.377,0.009 0.311,0.009C0.258,0.009 0.21,-0.003 0.168,-0.027C0.125,-0.05 0.092,-0.084 0.069,-0.127C0.045,-0.17 0.033,-0.22 0.033,-0.277C0.033,-0.334 0.045,-0.385 0.068,-0.428C0.091,-0.471 0.124,-0.505 0.166,-0.528C0.208,-0.551 0.256,-0.563 0.311,-0.563C0.364,-0.563 0.411,-0.552 0.453,-0.529C0.494,-0.506 0.527,-0.474 0.55,-0.433C0.572,-0.391 0.584,-0.343 0.584,-0.289ZM0.439,-0.329C0.438,-0.365 0.425,-0.394 0.4,-0.416C0.375,-0.437 0.344,-0.448 0.307,-0.448C0.272,-0.448 0.243,-0.438 0.22,-0.417C0.196,-0.396 0.181,-0.366 0.176,-0.329L0.439,-0.329Z" style="fill:white;fill-rule:nonzero;"/>
            </g>
            <g transform="matrix(48.9519,0,0,48.9519,9233.47,1625.14)">
                <path d="M0.281,0.009C0.236,0.009 0.195,0.001 0.159,-0.016C0.123,-0.032 0.094,-0.054 0.074,-0.082C0.053,-0.11 0.041,-0.141 0.039,-0.175L0.18,-0.175C0.183,-0.154 0.193,-0.136 0.212,-0.122C0.23,-0.108 0.253,-0.101 0.28,-0.101C0.307,-0.101 0.328,-0.106 0.343,-0.117C0.358,-0.128 0.365,-0.141 0.365,-0.158C0.365,-0.176 0.356,-0.19 0.338,-0.199C0.319,-0.208 0.29,-0.217 0.25,-0.228C0.209,-0.238 0.175,-0.248 0.149,-0.259C0.122,-0.27 0.099,-0.286 0.081,-0.308C0.062,-0.33 0.052,-0.36 0.052,-0.397C0.052,-0.428 0.061,-0.456 0.079,-0.481C0.096,-0.506 0.122,-0.526 0.155,-0.541C0.188,-0.556 0.226,-0.563 0.271,-0.563C0.337,-0.563 0.39,-0.547 0.429,-0.514C0.468,-0.481 0.49,-0.436 0.494,-0.38L0.36,-0.38C0.358,-0.402 0.349,-0.42 0.333,-0.433C0.316,-0.446 0.294,-0.452 0.267,-0.452C0.242,-0.452 0.222,-0.447 0.209,-0.438C0.195,-0.429 0.188,-0.416 0.188,-0.399C0.188,-0.38 0.197,-0.366 0.216,-0.357C0.235,-0.347 0.264,-0.337 0.303,-0.327C0.343,-0.317 0.376,-0.307 0.402,-0.296C0.428,-0.285 0.451,-0.269 0.47,-0.247C0.489,-0.224 0.498,-0.195 0.499,-0.158C0.499,-0.126 0.49,-0.097 0.473,-0.072C0.455,-0.047 0.43,-0.027 0.397,-0.013C0.364,0.002 0.325,0.009 0.281,0.009Z" style="fill:white;fill-rule:nonzero;"/>
            </g>
            <g transform="matrix(48.9519,0,0,48.9519,9260.15,1625.14)">
                <path d="M0.14,-0.62C0.115,-0.62 0.095,-0.628 0.079,-0.644C0.062,-0.659 0.054,-0.679 0.054,-0.702C0.054,-0.725 0.062,-0.745 0.079,-0.761C0.095,-0.776 0.115,-0.784 0.14,-0.784C0.165,-0.784 0.185,-0.776 0.202,-0.761C0.218,-0.745 0.226,-0.725 0.226,-0.702C0.226,-0.679 0.218,-0.659 0.202,-0.644C0.185,-0.628 0.165,-0.62 0.14,-0.62ZM0.209,-0.554L0.209,-0L0.069,-0L0.069,-0.554L0.209,-0.554Z" style="fill:white;fill-rule:nonzero;"/>
            </g>
            <g transform="matrix(48.9519,0,0,48.9519,9273.76,1625.14)">
                <path d="M0.033,-0.279C0.033,-0.335 0.044,-0.385 0.067,-0.428C0.089,-0.471 0.119,-0.505 0.158,-0.528C0.196,-0.551 0.239,-0.563 0.286,-0.563C0.327,-0.563 0.364,-0.555 0.395,-0.538C0.426,-0.521 0.45,-0.5 0.469,-0.475L0.469,-0.554L0.61,-0.554L0.61,-0L0.469,-0L0.469,-0.081C0.451,-0.055 0.426,-0.034 0.395,-0.017C0.363,0.001 0.326,0.009 0.285,0.009C0.238,0.009 0.196,-0.003 0.158,-0.027C0.119,-0.051 0.089,-0.085 0.067,-0.129C0.044,-0.172 0.033,-0.222 0.033,-0.279ZM0.469,-0.277C0.469,-0.311 0.462,-0.34 0.449,-0.365C0.436,-0.389 0.418,-0.408 0.395,-0.421C0.372,-0.434 0.348,-0.44 0.322,-0.44C0.296,-0.44 0.272,-0.434 0.25,-0.421C0.228,-0.408 0.21,-0.39 0.197,-0.366C0.183,-0.341 0.176,-0.312 0.176,-0.279C0.176,-0.246 0.183,-0.217 0.197,-0.192C0.21,-0.167 0.228,-0.147 0.251,-0.134C0.273,-0.121 0.297,-0.114 0.322,-0.114C0.348,-0.114 0.372,-0.121 0.395,-0.134C0.418,-0.147 0.436,-0.165 0.449,-0.19C0.462,-0.214 0.469,-0.243 0.469,-0.277Z" style="fill:white;fill-rule:nonzero;"/>
            </g>
        </g>
    </g>
</svg>
